<svg xmlns="http://www.w3.org/2000/svg" viewBox="0 0 275.31 35.94"><defs><style>.cls-1{fill:#fff;}.cls-2{fill:#ff2c19;}</style></defs><title>long_logo</title><g id="Layer_2" data-name="Layer 2"><g id="Layer_1-2" data-name="Layer 1"><path class="cls-1" d="M7.55,4.58H.12V0H20.43V4.58H13V24.8H7.55Z"/><path class="cls-1" d="M21.11,0h4.94V9.34h.1a6.3,6.3,0,0,1,5.24-3c5.25,0,6.57,3,6.57,7.39V24.8H33V14.66c0-3-.87-4.41-3.16-4.41-2.68,0-3.82,1.49-3.82,5.13V24.8H21.11Z"/><path class="cls-1" d="M44.26,17c.14,3.12,1.67,4.55,4.41,4.55,2,0,3.58-1.22,3.89-2.33H56.9c-1.39,4.24-4.34,6-8.4,6-5.66,0-9.17-3.89-9.17-9.44,0-5.39,3.71-9.48,9.17-9.48,6.11,0,9.06,5.14,8.71,10.66Zm8-3.13c-.45-2.5-1.53-3.82-3.92-3.82a3.88,3.88,0,0,0-4.1,3.82Z"/><path class="cls-1" d="M67.18,0h10.7C84.3,0,89.13,4,89.13,12.26c0,7.19-3.68,12.54-11.25,12.54H67.18Zm5.45,20.21h4.86c3.16,0,6.19-1.94,6.19-7.43,0-5-1.74-8.2-7.16-8.2H72.63Z"/><path class="cls-1" d="M96,4.06H91.09V0H96ZM91.09,6.84H96v18H91.09Z"/><path class="cls-1" d="M102.15,19c0,2.16,1.84,3,3.79,3,1.42,0,3.23-.55,3.23-2.29,0-1.49-2-2-5.6-2.78-2.84-.62-5.69-1.63-5.69-4.79,0-4.58,4-5.76,7.81-5.76s7.54,1.31,7.92,5.73h-4.69c-.14-1.91-1.59-2.44-3.37-2.44-1.11,0-2.74.21-2.74,1.67,0,1.77,2.78,2,5.59,2.68s5.7,1.7,5.7,5c0,4.72-4.1,6.25-8.2,6.25S97.67,23.72,97.46,19Z"/><path class="cls-1" d="M127.47,13.16a3.36,3.36,0,0,0-3.64-3.09c-3.16,0-4.2,3.2-4.2,5.84s1,5.66,4.09,5.66c2.3,0,3.61-1.46,3.93-3.65h4.76c-.63,4.76-3.93,7.36-8.65,7.36-5.42,0-9.07-3.82-9.07-9.2,0-5.59,3.34-9.72,9.17-9.72,4.24,0,8.13,2.22,8.44,6.8Z"/><path class="cls-1" d="M133.72,6.84h4.69v3.34h.07a6.35,6.35,0,0,1,5.73-3.82,3.49,3.49,0,0,1,1.08.17v4.58a9.33,9.33,0,0,0-1.77-.17c-3.61,0-4.86,2.6-4.86,5.76v8.1h-4.94Z"/><path class="cls-1" d="M149.84,17c.14,3.12,1.66,4.55,4.41,4.55,2,0,3.58-1.22,3.89-2.33h4.34c-1.39,4.24-4.34,6-8.4,6-5.67,0-9.17-3.89-9.17-9.44,0-5.39,3.71-9.48,9.17-9.48,6.11,0,9.06,5.14,8.71,10.66Zm8-3.13c-.45-2.5-1.53-3.82-3.92-3.82a3.88,3.88,0,0,0-4.1,3.82Z"/><path class="cls-1" d="M170.88,6.84h3.61v3.3h-3.61V19c0,1.67.42,2.09,2.09,2.09a7.82,7.82,0,0,0,1.52-.14v3.85a18.75,18.75,0,0,1-2.88.17c-3,0-5.66-.69-5.66-4.27V10.14h-3V6.84h3V1.46h4.93Z"/><path class="cls-1" d="M179.91,17c.14,3.12,1.67,4.55,4.41,4.55,2,0,3.58-1.22,3.89-2.33h4.34c-1.39,4.24-4.34,6-8.4,6-5.66,0-9.17-3.89-9.17-9.44,0-5.39,3.72-9.48,9.17-9.48,6.11,0,9.06,5.14,8.72,10.66Zm8-3.13c-.45-2.5-1.52-3.82-3.92-3.82a3.88,3.88,0,0,0-4.1,3.82Z"/><path class="cls-1" d="M202.83,0h5.45V20.21h12.09V24.8H202.83Z"/><path class="cls-1" d="M221.34,12.36c.27-4.62,4.41-6,8.44-6,3.57,0,7.88.79,7.88,5.1V20.8a9.24,9.24,0,0,0,.62,4h-5a7.35,7.35,0,0,1-.34-1.74,8.27,8.27,0,0,1-6.05,2.22c-3.4,0-6.11-1.7-6.11-5.38,0-4.06,3.06-5,6.11-5.45s5.84-.35,5.84-2.36-1.46-2.44-3.2-2.44-3.09.77-3.26,2.71ZM232.73,16c-.84.73-2.57.76-4.1,1s-2.92.84-2.92,2.64,1.43,2.29,3,2.29c3.86,0,4-3.05,4-4.13Z"/><path class="cls-1" d="M240,0H245V9H245a6.63,6.63,0,0,1,5.66-2.67c3.58,0,7.43,2.88,7.43,9.44s-3.85,9.48-7.43,9.48c-2.64,0-4.83-.8-5.9-2.78h-.07v2.3H240Zm9,10.07c-2.92,0-4.2,2.74-4.2,5.77s1.28,5.73,4.2,5.73,4.2-2.75,4.2-5.73S251.9,10.07,249,10.07Z"/><path class="cls-1" d="M263.37,19c0,2.16,1.84,3,3.78,3,1.43,0,3.23-.55,3.23-2.29,0-1.49-2.05-2-5.59-2.78-2.85-.62-5.69-1.63-5.69-4.79,0-4.58,3.95-5.76,7.81-5.76s7.54,1.31,7.92,5.73h-4.69c-.14-1.91-1.6-2.44-3.37-2.44-1.11,0-2.74.21-2.74,1.67,0,1.77,2.78,2,5.59,2.68s5.69,1.7,5.69,5c0,4.72-4.09,6.25-8.19,6.25s-8.23-1.56-8.44-6.32Z"/><rect class="cls-2" x="135.25" y="-103.31" width="4" height="274.5" transform="translate(103.31 171.19) rotate(-90)"/></g></g></svg>